# AST/ASF file generated using VICON BodyLanguage
# -----------------------------------------------
:version 1.10
:name VICON
:units
  mass 1.0
  length 0.45
  angle deg
:documentation
   .ast/.asf automatically generated from VICON data using
   VICON BodyBuilder and BodyLanguage model FoxedUp or BRILLIANT.MOD
:root
   order TX TY TZ RX RY RZ
   axis XYZ
   position 0 0 0  
   orientation 0 0 0 
:bonedata
  begin
     id 1 
     name lhipjoint
     direction 0.537252 -0.787203 0.302774 
     length 2.29576 
     axis 0 0 0  XYZ
  end
  begin
     id 2 
     name lfemur
     direction 0.34202 -0.939693 0  
     length 7.31114  
     axis 0 0 20  XYZ
    dof rx ry rz
    limits (-160.0 20.0)
           (-70.0 70.0)
           (-60.0 70.0)
  end
  begin
     id 3 
     name ltibia
     direction 0.34202 -0.939693 0   
     length 8.36008   
     axis 0 0 20   XYZ
    dof rx
    limits (-10.0 170.0)
  end
  begin
     id 4 
     name lfoot
     direction 0.0969116 -0.266263 0.959016   
     length 2.16704   
     axis -90 7.62852e-016 20   XYZ
    dof rx rz
    limits (-45.0 90.0)
           (-70.0 20.0)
  end
  begin
     id 5 
     name ltoes
     direction 1.53563e-011 -4.21779e-011 1   
     length 1.08338   
     axis -90 7.62852e-016 20   XYZ
    dof rx
    limits (-90.0 20.0)
  end
  begin
     id 6 
     name rhipjoint
     direction -0.588228 -0.754791 0.290308   
     length 2.39434  
     axis 0 0 0  XYZ 
  end
  begin
     id 7 
     name rfemur
     direction -0.34202 -0.939693 0   
     length 7.45207   
     axis 0 0 -20   XYZ
    dof rx ry rz
    limits (-160.0 20.0)
           (-70.0 70.0)
           (-70.0 60.0)
  end
  begin
     id 8 
     name rtibia
     direction -0.34202 -0.939693 0   
     length 8.03565   
     axis 0 0 -20   XYZ
    dof rx
    limits (-10.0 170.0)
 end
 begin
     id 9 
     name rfoot
     direction -0.107009 -0.294004 0.949795   
     length 2.11509  
     axis -90 -7.62852e-016 -20   XYZ
    dof rx rz
    limits (-45.0 90.0)
           (-20.0 70.0)
  end
  begin
     id 10 
     name rtoes
     direction -1.53533e-011 -4.22004e-011 1   
     length 1.05493   
     axis -90 -7.62852e-016 -20   XYZ
    dof rx
    limits (-90.0 20.0)
  end
  begin
     id 11 
     name lowerback
     direction -0.0115208 0.997969 -0.0626515   
     length 2.03153   
     axis 0 0 0   XYZ
    dof rx ry rz
    limits (-20.0 45.0)
           (-30.0 30.0)
           (-30.0 30.0)
  end
  begin
     id 12 
     name upperback
     direction -0.00423475 0.999974 -0.00583614   
     length 2.03619   
     axis 0 0 0   XYZ
    dof rx ry rz
    limits (-20.0 45.0)
           (-30.0 30.0)
           (-30.0 30.0)
  end
  begin
     id 13 
     name thorax
     direction 0.00289429 0.999728 0.0231573   
     length 2.03921   
     axis 0 0 0   XYZ
    dof rx ry rz
    limits (-20.0 45.0)
           (-30.0 30.0)
           (-30.0 30.0)
  end
  begin
     id 14 
     name lowerneck
     direction 0.0188995 0.987777 0.154721   
     length 1.78836   
     axis 0 0 0   XYZ
    dof rx ry rz
    limits (-20.0 45.0)
           (-30.0 30.0)
           (-30.0 30.0)
  end
  begin
     id 15 
     name upperneck
     direction -0.00612612 0.992995 -0.118   
     length 1.81789   
     axis 0 0 0   XYZ
    dof rx ry rz
    limits (-20.0 45.0)
           (-30.0 30.0)
           (-30.0 30.0)
  end
  begin
     id 16
     name head
     direction -0.00420226 0.998397 -0.0564482  
     length 1.82234  
     axis 0 0 0   XYZ
    dof rx ry rz
    limits (-20.0 45.0)
           (-30.0 30.0)
           (-30.0 30.0)
  end
  begin
     id 17 
     name lclavicle
     direction 0.916488 0.396539 0.0529676  
     length 3.51732  
     axis 0 0 0   XYZ
    dof ry rz
    limits (-20.0 10.0)
           (0.0 20.0)
  end
  begin
     id 18 
     name lhumerus
     direction 1 -4.4896e-011 8.36962e-028   
     length 5.45077   
     axis 180 -30 -90   XYZ
    dof rx ry rz
    limits (-60.0 90.0)
           (-90.0 90.0)
           (-90.0 90.0)
  end
  begin
     id 19
     name lradius
     direction 1 -4.48962e-011 3.01407e-027   
     length 3.05488   
     axis 180 -30 -90   XYZ
    dof rx
    limits (-10.0 170.0)
  end
  begin
     id 20
     name lwrist
     direction 1 -4.49002e-011 4.72961e-027   
     length 1.52744   
     axis -2.72261e-015 90 90   XYZ
    dof ry
    limits (-180.0 0.0)
 end
  begin
     id 21 
     name lhand
     direction 1 -4.4899e-011 9.45681e-027   
     length 0.638818   
     axis -6.0311e-015 90 90   XYZ
    dof rx rz
    limits (-90.0 90.0)
           (-45.0 45.0)
  end
  begin
     id 22 
     name lfingers
     direction 1 -4.48871e-011 1.88632e-026   
     length 0.515032   
     axis -1.20625e-014 90 90   XYZ
    dof rx
    limits (0.0 90.0)
  end
  begin
     id 23
     name lthumb
     direction 0.707107 -6.34964e-011 0.707107   
     length 0.739485   
     axis -90 45 6.32835e-014   XYZ
    dof rx rz
    limits (-45.0 45.0)
           (-45.0 45.0)
  end
  begin
     id 24 
     name rclavicle
     direction -0.949427 0.303202 0.0815894   
     length 3.76167  
     axis 0 0 0   XYZ 
    dof ry rz
    limits (-10.0 20.0)
           (-20.0 0.0)
  end
  begin
     id 25 
     name rhumerus
     direction -1 -4.48971e-011 -6.43969e-018  
     length 4.88702   
     axis 180 30 90   XYZ
    dof rx ry rz
    limits (-90.0 60.0)
           (-90.0 90.0)
           (-90.0 90.0)
  end
  begin
     id 26 
     name rradius
     direction -1 -4.48987e-011 5.46662e-027   
     length 3.22603   
     axis 180 30 90   XYZ
    dof rx
    limits (-10.0 170.0)
  end
  begin
     id 27 
     name rwrist
     direction -1 -4.48956e-011 4.72476e-027   
     length 1.61302   
     axis -2.72261e-015 -90 -90   XYZ
    dof ry
    limits (-180.0 0.0)
  end
  begin
     id 28
     name rhand
     direction -1 -4.4889e-011 9.43571e-027   
     length 0.716293   
     axis -6.0311e-015 -90 -90   XYZ
    dof rx rz
    limits (-90.0 90.0)
           (-45.0 45.0)
  end
  begin
     id 29
     name rfingers
     direction -1 -4.48887e-011 1.88701e-026   
     length 0.577494   
     axis -1.20625e-014 -90 -90   XYZ
    dof rx
    limits (0.0 90.0)
  end
  begin
     id 30
     name rthumb
     direction -0.707107 -6.34825e-011 0.707107   
     length 0.829169   
     axis -90 -45 -6.32835e-014   XYZ
    dof rx rz
    limits (-45.0 45.0)
           (-45.0 45.0)
  end
:hierarchy
  begin
    root lhipjoint rhipjoint lowerback
    lhipjoint lfemur
    lfemur ltibia
    ltibia lfoot
    lfoot ltoes
    rhipjoint rfemur
    rfemur rtibia
    rtibia rfoot
    rfoot rtoes
    lowerback upperback
    upperback thorax
    thorax lowerneck lclavicle rclavicle
    lowerneck upperneck
    upperneck head
    lclavicle lhumerus
    lhumerus lradius
    lradius lwrist
    lwrist lhand lthumb
    lhand lfingers
    rclavicle rhumerus
    rhumerus rradius
    rradius rwrist
    rwrist rhand rthumb
    rhand rfingers
  end

#!OML:ASF F:\VICON\USERDATA\INSTALL\rory3\rory3.ASF
:FULLY-SPECIFIED
:DEGREES
203
root 1.55148 18.5557 0.609448 149.504 88.379 137.057
lowerback -10.943 -0.557143 -0.310306
upperback -2.63089 -0.568931 -1.02713
thorax 3.38257 -0.242253 -0.967189
lowerneck -21.0548 -1.18523 2.04012
upperneck 29.3883 -2.40623 1.11561
head 13.427 -0.484057 -0.289195
rclavicle -4.47266e-015 -6.36111e-015
rhumerus 20.7591 57.4727 -43.3852
rradius 89.3279
rwrist -183.206
rhand -51.4402 -7.18029
rfingers 7.12502
rthumb -23.9708 -35.7038
lclavicle -4.47266e-015 -6.36111e-015
lhumerus 1.86219 -41.5899 58.9102
lradius 95.3445
lwrist 205.463
lhand -47.6061 -41.6261
lfingers 7.12502
lthumb -20.2898 -12.6659
rfemur -7.91703 -12.3297 17.7449
rtibia 1.51076e-014
rfoot -2.37126 11.2352
rtoes -10.5468
lfemur -15.5862 8.41265 -19.1302
ltibia 15.9949
lfoot -12.3422 -3.54884
ltoes -27.5894
204
root 1.56035 18.5556 0.605473 150.793 88.4134 138.324
lowerback -10.8411 -0.591325 -0.138388
upperback -2.80118 -0.630589 -1.03431
thorax 3.14639 -0.270547 -1.07723
lowerneck -20.9027 -1.12205 2.0829
upperneck 29.3847 -2.29601 1.03908
head 13.3918 -0.442009 -0.306134
rclavicle 3.08116e-015 -1.39149e-015
rhumerus 19.3769 56.3026 -45.142
rradius 90.3517
rwrist -186.621
rhand -51.9201 -7.37294
rfingers 7.12502
rthumb -24.4309 -35.8352
lclavicle 3.08116e-015 -1.39149e-015
lhumerus 0.47381 -39.8381 60.5264
lradius 96.3589
lwrist 207.992
lhand -48.0918 -42.7428
lfingers 7.12502
lthumb -20.7566 -13.8329
rfemur -7.90717 -12.3223 17.786
rtibia -7.15625e-015
rfoot -2.41211 11.2365
rtoes -10.7537
lfemur -15.5757 8.53621 -19.1061
ltibia 15.996
lfoot -12.4264 -3.64743
ltoes -27.5409
205
root 1.56878 18.5568 0.603291 150.085 88.4469 137.601
lowerback -10.8418 -0.623632 -0.0935672
upperback -2.8783 -0.677231 -1.0147
thorax 3.06552 -0.292818 -1.08766
lowerneck -20.8892 -1.07307 2.13674
upperneck 29.406 -2.19844 0.900503
head 13.3952 -0.412863 -0.352811
rclavicle -3.15571e-015 -5.96354e-015
rhumerus 18.2708 54.9412 -46.6212
rradius 91.3558
rwrist -190.037
rhand -52.3241 -7.7649
rfingers 7.12502
rthumb -24.8181 -36.1743
lclavicle -3.15571e-015 -5.96354e-015
lhumerus -0.658173 -37.9585 61.9366
lradius 97.3766
lwrist 210.386
lhand -48.4031 -43.5776
lfingers 7.12502
lthumb -21.0557 -14.7007
rfemur -7.88901 -12.2884 17.7751
rtibia -1.90833e-014
rfoot -2.44478 11.2401
rtoes -10.8449
lfemur -15.5415 8.59082 -19.109
ltibia 15.9693
lfoot -12.439 -3.69224
ltoes -27.4298
206
root 1.57581 18.5572 0.600428 147.725 88.4597 135.201
lowerback -10.8667 -0.640636 -0.0875672
upperback -2.96161 -0.696501 -1.04253
thorax 2.99179 -0.301293 -1.12206
lowerneck -20.8223 -1.04815 2.26289
upperneck 29.3877 -2.16253 0.770391
head 13.3698 -0.402042 -0.41875
rclavicle 3.49116e-015 -7.55382e-015
rhumerus 17.0109 53.4953 -48.2364
rradius 92.405
rwrist -193.126
rhand -52.2686 -7.82433
rfingers 7.12502
rthumb -24.7649 -36.2411
lclavicle 3.49116e-015 -7.55382e-015
lhumerus -1.6868 -36.0711 63.1517
lradius 98.4295
lwrist 212.656
lhand -48.5303 -43.9107
lfingers 7.12502
lthumb -21.1778 -15.0474
rfemur -7.92078 -12.2494 17.7194
rtibia -1.66979e-014
rfoot -2.48808 11.2721
rtoes -10.868
lfemur -15.5353 8.59794 -19.1703
ltibia 15.9234
lfoot -12.4242 -3.65417
ltoes -27.5031
207
root 1.58398 18.5578 0.597445 145.726 88.5119 133.195
lowerback -10.8586 -0.640502 -0.00203613
upperback -3.03967 -0.70221 -1.07746
thorax 2.90455 -0.303113 -1.20647
lowerneck -20.805 -1.02022 2.29116
upperneck 29.3966 -2.12434 0.748811
head 13.3696 -0.385006 -0.425302
rclavicle -4.83916e-015 1.98785e-015
rhumerus 15.8393 52.0012 -49.7749
rradius 93.5087
rwrist -195.886
rhand -52.513 -7.86481
rfingers 7.12502
rthumb -24.9992 -36.2492
lclavicle -4.83916e-015 1.98785e-015
lhumerus -2.64174 -34.1745 64.2136
lradius 99.521
lwrist 214.894
lhand -48.4736 -43.7683
lfingers 7.12502
lthumb -21.1235 -14.899
rfemur -7.91481 -12.1807 17.6921
rtibia -9.54166e-015
rfoot -2.46782 11.2702
rtoes -10.9057
lfemur -15.4931 8.62032 -19.1887
ltibia 15.8802
lfoot -12.4013 -3.59541
ltoes -27.3879
208
root 1.59342 18.5552 0.594421 142.666 88.5529 130.163
lowerback -10.8564 -0.63871 0.0363212
upperback -3.08678 -0.702011 -1.09602
thorax 2.85363 -0.302502 -1.24687
lowerneck -20.7195 -0.997942 2.27939
upperneck 29.3181 -2.08484 0.748416
head 13.319 -0.371919 -0.416051
rclavicle -1.25483e-015 9.93923e-016
rhumerus 14.7242 50.3789 -51.2383
rradius 94.6593
rwrist -198.354
rhand -53.2539 -8.2266
rfingers 7.12502
rthumb -25.7089 -36.5103
lclavicle -1.25483e-015 9.93923e-016
lhumerus -3.44617 -32.1998 65.221
lradius 100.651
lwrist 216.855
lhand -48.2022 -43.7419
lfingers 7.12502
lthumb -20.8626 -14.8436
rfemur -7.8604 -12.1058 17.6306
rtibia -1.51076e-014
rfoot -2.48352 11.2809
rtoes -10.9428
lfemur -15.4151 8.61641 -19.2201
ltibia 15.8717
lfoot -12.4311 -3.5096
ltoes -27.4745
209
root 1.60142 18.5546 0.590361 142.375 88.5751 129.881
lowerback -10.8842 -0.65344 0.155441
upperback -3.10793 -0.732459 -1.12458
thorax 2.84423 -0.317059 -1.34781
lowerneck -20.6779 -0.974811 2.30757
upperneck 29.1914 -2.05743 0.73056
head 13.2569 -0.364121 -0.423043
rclavicle -1.14301e-015 -3.97569e-016
rhumerus 13.6476 48.5807 -52.7647
rradius 95.8098
rwrist -200.453
rhand -53.9965 -8.84087
rfingers 7.12502
rthumb -26.42 -37.0197
lclavicle -1.14301e-015 -3.97569e-016
lhumerus -4.03565 -30.0482 66.0942
lradius 101.808
lwrist 218.382
lhand -47.6013 -44.0534
lfingers 7.12502
lthumb -20.2853 -15.0927
rfemur -7.81949 -12.0881 17.6212
rtibia -3.18055e-015
rfoot -2.51444 11.3367
rtoes -10.9512
lfemur -15.3773 8.55176 -19.2054
ltibia 15.8911
lfoot -12.4342 -3.43958
ltoes -27.5464
210
root 1.60751 18.5551 0.588304 138.99 88.6182 126.506
lowerback -10.8574 -0.643574 0.210876
upperback -3.17828 -0.722406 -1.15726
thorax 2.75541 -0.311577 -1.41066
lowerneck -20.5714 -0.981736 2.30219
upperneck 29.1384 -2.05929 0.725756
head 13.2123 -0.367833 -0.423536
rclavicle 4.94477e-015 -6.55989e-015
rhumerus 12.5559 46.7638 -54.2355
rradius 96.9618
rwrist -202.386
rhand -54.6341 -9.27827
rfingers 7.12502
rthumb -27.0301 -37.364
lclavicle 4.94477e-015 -6.55989e-015
lhumerus -4.62936 -27.8396 66.9232
lradius 103.071
lwrist 219.492
lhand -46.6887 -44.2461
lfingers 7.12502
lthumb -19.408 -15.1947
rfemur -7.78267 -12.0065 17.5675
rtibia -3.18055e-015
rfoot -2.53463 11.3537
rtoes -10.7415
lfemur -15.3504 8.52485 -19.2286
ltibia 15.9393
lfoot -12.483 -3.32646
ltoes -27.5539
211
root 1.61441 18.5546 0.58321 134.67 88.6978 122.194
lowerback -10.9022 -0.603769 0.281623
upperback -3.21264 -0.675748 -1.16048
thorax 2.74456 -0.287824 -1.44812
lowerneck -20.5026 -0.992499 2.28376
upperneck 29.0851 -2.05277 0.68511
head 13.175 -0.374677 -0.434695
rclavicle 4.06887e-016 3.77691e-015
rhumerus 11.6392 44.886 -55.422
rradius 98.0412
rwrist -204.354
rhand -55.2529 -9.82141
rfingers 7.12502
rthumb -27.622 -37.8139
lclavicle 4.06887e-016 3.77691e-015
lhumerus -5.08609 -25.568 67.6713
lradius 104.15
lwrist 220.573
lhand -45.9663 -43.8001
lfingers 7.12502
lthumb -18.7133 -14.6802
rfemur -7.76654 -11.8847 17.5244
rtibia -3.97569e-015
rfoot -2.55447 11.3624
rtoes -10.6994
lfemur -15.3134 8.57984 -19.2517
ltibia 15.9773
lfoot -12.5824 -3.27659
ltoes -27.4716
212
root 1.61983 18.5558 0.579442 131.687 88.8079 119.212
lowerback -10.9369 -0.538672 0.401488
upperback -3.25122 -0.601305 -1.15519
thorax 2.72416 -0.250287 -1.50063
lowerneck -20.3481 -1.0128 2.29276
upperneck 28.9144 -2.05347 0.60004
head 13.07 -0.391671 -0.468347
rclavicle 3.82039e-015 1.59028e-015
rhumerus 10.6613 42.8687 -56.5811
rradius 99.0073
rwrist -206.422
rhand -55.7741 -10.1856
rfingers 7.12502
rthumb -28.1203 -38.0972
lclavicle 3.82039e-015 1.59028e-015
lhumerus -5.48024 -23.2501 68.452
lradius 104.988
lwrist 221.675
lhand -45.6772 -43.1601
lfingers 7.12502
lthumb -18.4352 -14.0136
rfemur -7.77097 -11.7641 17.5524
rtibia -6.36111e-015
rfoot -2.54246 11.3578
rtoes -10.7695
lfemur -15.2996 8.58936 -19.199
ltibia 16.0181
lfoot -12.6266 -3.18939
ltoes -27.1266
213
root 1.62376 18.5544 0.577749 127.862 88.8535 115.453
lowerback -10.8247 -0.453568 0.57098
upperback -3.32584 -0.50063 -1.27943
thorax 2.585 -0.200444 -1.71041
lowerneck -20.2486 -1.04813 2.41407
upperneck 28.9173 -2.13269 0.574121
head 13.0479 -0.415392 -0.511474
rclavicle 8.13775e-016 -9.54166e-015
rhumerus 9.55254 40.7645 -57.914
rradius 99.8758
rwrist -208.527
rhand -56.1247 -10.3334
rfingers 7.12502
rthumb -28.4554 -38.1895
lclavicle 8.13775e-016 -9.54166e-015
lhumerus -5.89166 -21.1102 69.1069
lradius 105.588
lwrist 223.116
lhand -45.6311 -42.4642
lfingers 7.12502
lthumb -18.3908 -13.3135
rfemur -7.68814 -11.6758 17.5164
rtibia -6.36111e-015
rfoot -2.51854 11.358
rtoes -10.7474
lfemur -15.2211 8.68932 -19.216
ltibia 16.0316
lfoot -12.6117 -3.15218
ltoes -27.4376
